<svg xmlns="http://www.w3.org/2000/svg" xmlns:xlink="http://www.w3.org/1999/xlink" viewBox="0 0 2878.12 986.68"><defs><style>.cls-1{fill:url(#radial-gradient);}.cls-2,.cls-4,.cls-5{fill:#231f20;}.cls-3{fill:#603913;}.cls-4{font-size:65.08px;}.cls-4,.cls-5{font-family:ROGFonts-Regular, ROG Fonts;}.cls-5{font-size:35.67px;}.cls-6{fill:#ef4136;}.cls-7{fill:url(#radial-gradient-2);}.cls-8{fill:url(#radial-gradient-3);}</style><radialGradient id="radial-gradient" cx="1444.71" cy="496.13" r="474.51" gradientUnits="userSpaceOnUse"><stop offset="0" stop-color="#ef4136"/><stop offset="1" stop-color="#fff" stop-opacity="0"/></radialGradient><radialGradient id="radial-gradient-2" cx="2165.74" cy="801.06" r="187.9" gradientUnits="userSpaceOnUse"><stop offset="0" stop-color="#b26b29"/><stop offset="1" stop-color="#fff" stop-opacity="0"/></radialGradient><radialGradient id="radial-gradient-3" cx="308.48" cy="193.34" r="187.9" gradientUnits="userSpaceOnUse"><stop offset="0" stop-color="#f99b1c"/><stop offset="1" stop-color="#fff" stop-opacity="0"/></radialGradient></defs><g id="Layer_2" data-name="Layer 2"><g id="Layer_1-2" data-name="Layer 1"><ellipse class="cls-1" cx="1444.71" cy="496.13" rx="480.19" ry="468.76"/><path class="cls-2" d="M2137.2,283.37q-38.65,40-80.42,77c-3.49,3.06-6.91,6.21-10.46,9.21l-10.61,9c-3.55,3-7.06,6-10.66,9l-10.82,8.78c-3.62,2.91-7.19,5.89-10.85,8.74l-11,8.55c-3.68,2.83-7.29,5.76-11.06,8.49l-11.22,8.27a1015.7,1015.7,0,0,1-93.27,61.22c-8.1,4.58-16.11,9.33-24.37,13.63l-12.32,6.56-12.47,6.29-6.23,3.14-6.31,3-12.64,5.94-12.79,5.62-6.39,2.81-6.46,2.65c-4.31,1.77-8.61,3.55-12.94,5.26l-13.06,4.93c-4.34,1.69-8.75,3.19-13.14,4.73s-8.76,3.14-13.22,4.5L1711.18,565l-13.39,3.94c-4.45,1.35-9,2.51-13.45,3.72s-9,2.44-13.52,3.48c-18,4.51-36.29,8.2-54.64,11.19s-36.79,5.34-55.31,6.93a701.73,701.73,0,0,1-111.36.65l-13.88-1.19c-4.63-.42-9.24-1-13.86-1.45l-3.47-.37-3.45-.43-6.92-.86c-4.61-.54-9.21-1.23-13.81-1.88-18.39-2.65-36.69-5.88-54.92-9.35-36.48-6.88-72.76-14.66-109.36-19.52a529.63,529.63,0,0,0-55-4.56,416.66,416.66,0,0,0-55.07,2.11,432.57,432.57,0,0,0-54.29,9.35l-13.33,3.49c-2.22.61-4.46,1.13-6.66,1.8l-6.58,2-6.59,2-3.29,1-1.65.51-1.62.58-13,4.64a492,492,0,0,0-50.5,22.09L956.07,608c-2.05,1-4,2.2-6.06,3.29L937.92,618c-7.87,4.76-15.86,9.32-23.53,14.41l-5.8,3.74L905.68,638c-1,.64-1.89,1.31-2.84,2l-11.35,7.86c-1.91,1.29-3.74,2.69-5.59,4.06L880.36,656l-5.54,4.12c-1.85,1.38-3.62,2.85-5.44,4.27l-10.81,8.59L848,681.86c-3.55,2.94-7,6-10.41,9.1l-5.16,4.6-2.59,2.29-2.52,2.37-10.07,9.48c-1.7,1.57-3.31,3.21-5,4.83l-4.91,4.88-4.92,4.87c-1.63,1.64-3.2,3.33-4.8,5l-9.57,10q-18.83,20.33-36.53,41.67c-3,3.55-5.8,7.19-8.71,10.78l-4.34,5.41-4.25,5.48c-2.82,3.66-5.68,7.29-8.47,11l-8.29,11.13c-2.79,3.68-5.42,7.49-8.14,11.23s-5.4,7.51-8,11.33l-7.92,11.4-7.74,11.53c-10.2,15.44-20.25,31-29.85,46.86s-18.93,31.87-28.06,48l-.71-.38C661.15,898.82,700.29,835.24,746.68,777q17.43-21.79,36.18-42.54l9.54-10.2c1.6-1.69,3.17-3.42,4.79-5.08l4.91-5,4.9-5c1.64-1.66,3.26-3.34,5-4.94l10.08-9.7,2.52-2.41,2.59-2.36,5.17-4.71c3.44-3.14,6.87-6.31,10.45-9.29l10.64-9.1,10.91-8.77c1.83-1.45,3.61-2.95,5.48-4.36l5.59-4.21,5.6-4.21c1.86-1.4,3.71-2.83,5.64-4.15l11.47-8.05c1-.66,1.9-1.35,2.87-2L903.9,629l5.87-3.83,5.87-3.82c1.94-1.31,4-2.43,6-3.65l12-7.19L946,603.78c2.06-1.11,4.09-2.27,6.17-3.34l6.28-3.13,6.27-3.12c2.1-1,4.16-2.14,6.32-3.06l12.79-5.75,3.2-1.44c1.08-.46,2.17-.88,3.25-1.31l6.52-2.6c4.36-1.69,8.66-3.55,13.11-5l13.24-4.63,1.66-.58,1.68-.51,3.35-1,6.72-2,6.72-2c2.24-.66,4.52-1.18,6.78-1.77l13.6-3.46a441.08,441.08,0,0,1,55.35-9.12,414.71,414.71,0,0,1,56-1.7,506.19,506.19,0,0,1,55.72,5.28c18.44,2.7,36.72,6.21,54.9,10l54.42,11.59c36.26,7.53,72.76,14.07,109.68,17.11,18.44,1.54,37,2.19,55.47,2.16,4.62-.06,9.25,0,13.88-.17l13.87-.57q13.86-.66,27.69-2a649.29,649.29,0,0,0,109.07-19.84,772.59,772.59,0,0,0,104.54-36.64l6.37-2.71,6.31-2.85,12.62-5.72,12.49-6,6.25-3,6.17-3.13,12.36-6.27L1849,499c8.18-4.29,16.18-8.92,24.24-13.43,4-2.23,8-4.66,12-7l11.91-7.09,11.75-7.36c3.9-2.48,7.87-4.85,11.7-7.43,15.5-10.08,30.85-20.4,45.85-31.22l11.26-8.11c1.89-1.34,3.74-2.72,5.58-4.12l5.55-4.16,11.1-8.33c3.7-2.77,7.3-5.68,11-8.52l10.92-8.56c3.64-2.86,7.18-5.85,10.78-8.75l10.77-8.76c3.61-2.91,7.09-6,10.63-8.94,28.31-23.89,55.78-48.79,82.65-74.35Z"/><polygon class="cls-3" points="47.24 0.02 46.64 5.99 46.38 5.96 47.04 0 47.24 0.02"/><polygon class="cls-3" points="45.45 17.98 44.27 29.97 43.77 29.92 45.07 17.94 45.45 17.98"/><polygon class="cls-3" points="43.09 41.96 41.93 53.95 41.19 53.87 42.47 41.89 43.09 41.96"/><polygon class="cls-3" points="40.78 65.94 39.62 77.93 38.65 77.83 39.91 65.85 40.78 65.94"/><polygon class="cls-3" points="38.46 89.92 37.31 101.92 36.2 101.81 37.42 89.82 38.46 89.92"/><polygon class="cls-3" points="36.17 113.91 35.05 125.9 33.79 125.78 34.99 113.79 36.17 113.91"/><polygon class="cls-3" points="33.93 137.9 32.82 149.89 31.42 149.76 32.6 137.77 33.93 137.9"/><polygon class="cls-3" points="31.73 161.89 30.63 173.88 29.11 173.74 30.25 161.75 31.73 161.89"/><polygon class="cls-3" points="29.53 185.88 28.45 197.88 26.88 197.74 27.99 185.74 29.53 185.88"/><polygon class="cls-3" points="27.38 209.88 26.33 221.88 24.7 221.73 25.78 209.73 27.38 209.88"/><polygon class="cls-3" points="25.29 233.88 24.26 245.88 22.57 245.74 23.63 233.73 25.29 233.88"/><polygon class="cls-3" points="23.24 257.88 22.24 269.89 20.49 269.74 21.52 257.74 23.24 257.88"/><rect class="cls-3" x="13.85" y="286.93" width="12.05" height="1.79" transform="translate(-268.61 284.13) rotate(-85.32)"/><polygon class="cls-3" points="19.29 305.91 18.32 317.92 16.59 317.78 17.53 305.77 19.29 305.91"/><polygon class="cls-3" points="17.38 329.92 16.44 341.93 14.76 341.81 15.66 329.79 17.38 329.92"/><polygon class="cls-3" points="15.53 353.94 14.63 365.96 12.99 365.84 13.87 353.82 15.53 353.94"/><polygon class="cls-3" points="13.73 377.97 12.85 389.98 11.36 389.88 12.17 377.86 13.73 377.97"/><polygon class="cls-3" points="11.98 402 11.14 414.02 9.8 413.93 10.57 401.9 11.98 402"/><polygon class="cls-3" points="10.32 426.04 9.52 438.06 8.34 437.98 9.06 425.95 10.32 426.04"/><polygon class="cls-3" points="8.75 450.08 8 462.1 6.96 462.04 7.64 450.01 8.75 450.08"/><polygon class="cls-3" points="7.27 474.13 6.57 486.15 5.69 486.1 6.32 474.07 7.27 474.13"/><polygon class="cls-3" points="5.9 498.18 5.28 510.21 4.51 510.17 5.1 498.14 5.9 498.18"/><polygon class="cls-3" points="4.69 522.24 4.13 534.28 3.43 534.25 3.95 522.21 4.69 522.24"/><polygon class="cls-3" points="3.61 546.31 3.12 558.35 2.47 558.33 2.93 546.29 3.61 546.31"/><polygon class="cls-3" points="2.67 570.39 2.27 582.43 1.65 582.41 2.05 570.37 2.67 570.39"/><polygon class="cls-3" points="1.93 594.47 1.64 606.52 0.94 606.5 1.27 594.45 1.93 594.47"/><polygon class="cls-3" points="1.39 618.56 1.19 630.61 0.4 630.59 0.65 618.55 1.39 618.56"/><polygon class="cls-3" points="1.04 642.65 0.95 654.7 0.08 654.69 0.22 642.64 1.04 642.65"/><polygon class="cls-3" points="0.92 666.75 0.95 678.79 0 678.8 0.01 666.75 0.92 666.75"/><polygon class="cls-3" points="1.05 690.84 1.23 702.88 0.2 702.9 0.06 690.85 1.05 690.84"/><polygon class="cls-3" points="1.49 714.93 1.84 726.97 0.72 727 0.41 714.95 1.49 714.93"/><polygon class="cls-3" points="2.29 739.01 2.86 751.04 1.62 751.1 1.11 739.05 2.29 739.01"/><polygon class="cls-3" points="3.55 763.06 4.37 775.07 3.01 775.17 2.25 763.14 3.55 763.06"/><polygon class="cls-3" points="5.35 787.07 6.51 799.05 5.04 799.2 3.94 787.19 5.35 787.07"/><polygon class="cls-3" points="7.87 811 9.48 822.92 7.9 823.15 6.35 811.19 7.87 811"/><polygon class="cls-3" points="11.39 834.8 13.65 846.6 11.98 846.95 9.76 835.08 11.39 834.8"/><polygon class="cls-3" points="16.38 858.3 19.71 869.82 17.99 870.37 14.67 858.73 16.38 858.3"/><path class="cls-3" d="M23.88,881a80.72,80.72,0,0,0,5.42,10.6l-1.59,1a82.07,82.07,0,0,1-5.52-10.86Z"/><path class="cls-3" d="M36.64,900.82a23.41,23.41,0,0,0,10,5.67l-.48,1.86a25.27,25.27,0,0,1-10.77-6.14Z"/><path class="cls-3" d="M58,906.16a41.47,41.47,0,0,0,10.62-5l1,1.67A43,43,0,0,1,58.53,908Z"/><path class="cls-3" d="M78.14,894.06c3-2.59,5.94-5.32,8.78-8.13l1.43,1.45c-2.87,2.83-5.83,5.59-8.91,8.2Z"/><polygon class="cls-3" points="95.24 877.29 103.28 868.35 104.84 869.73 96.75 878.68 95.24 877.29"/><polygon class="cls-3" points="111.14 859.25 118.93 850.07 120.55 851.43 112.75 860.62 111.14 859.25"/><polygon class="cls-3" points="126.69 840.86 134.47 831.66 136.07 833.01 128.3 842.22 126.69 840.86"/><polygon class="cls-3" points="142.3 822.49 150.21 813.39 151.77 814.76 143.88 823.85 142.3 822.49"/><polygon class="cls-3" points="158.22 804.38 166.36 795.48 167.87 796.88 159.76 805.77 158.22 804.38"/><polygon class="cls-3" points="174.64 786.72 183.09 778.1 184.53 779.54 176.12 788.13 174.64 786.72"/><polygon class="cls-3" points="191.71 769.66 200.52 761.41 201.88 762.9 193.12 771.12 191.71 769.66"/><polygon class="cls-3" points="209.54 753.38 218.77 745.61 220.02 747.13 210.85 754.9 209.54 753.38"/><polygon class="cls-3" points="228.23 738.11 237.92 730.9 239 732.4 229.4 739.62 228.23 738.11"/><polygon class="cls-3" points="247.84 724.01 257.99 717.47 258.9 718.93 248.83 725.49 247.84 724.01"/><polygon class="cls-3" points="268.37 711.29 278.97 705.52 279.72 706.94 269.19 712.74 268.37 711.29"/><polygon class="cls-3" points="289.8 700.17 300.84 695.27 301.42 696.63 290.46 701.56 289.8 700.17"/><polygon class="cls-3" points="312.08 690.84 323.49 686.9 323.91 688.19 312.57 692.17 312.08 690.84"/><polygon class="cls-3" points="335.07 683.47 346.79 680.55 347.06 681.76 335.41 684.72 335.07 683.47"/><polygon class="cls-3" points="358.62 678.17 370.55 676.31 370.7 677.41 358.83 679.32 358.62 678.17"/><polygon class="cls-3" points="382.55 674.99 394.59 674.18 394.64 675.17 382.64 676.03 382.55 674.99"/><polygon class="cls-3" points="406.65 673.91 418.72 674.16 418.69 674.99 406.66 674.83 406.65 673.91"/><polygon class="cls-3" points="430.76 674.93 442.75 676.2 442.68 676.79 430.7 675.64 430.76 674.93"/><polygon class="cls-3" points="454.68 677.94 466.53 680.16 466.46 680.52 454.6 678.42 454.68 677.94"/><polygon class="cls-3" points="478.29 682.82 484.1 684.3 484.05 684.49 478.23 683.07 478.29 682.82"/><path class="cls-2" d="M1694.82,593.24C1745,554.41,1796,516.7,1848.27,480.73L1858,474l9.88-6.62,19.77-13.22c3.31-2.2,6.58-4.43,9.9-6.59l10-6.43,20-12.86,5-3.22,5.06-3.13,10.13-6.23,20.27-12.46,20.5-12.06c6.86-4,13.63-8.12,20.59-11.91,13.86-7.72,27.63-15.6,41.72-22.87l10.51-5.56c3.51-1.85,7-3.74,10.56-5.47l21.3-10.61,5.32-2.65c1.78-.88,3.59-1.69,5.38-2.53l10.78-5c7.2-3.32,14.33-6.8,21.65-9.86l21.82-9.46,22.1-8.82a831.59,831.59,0,0,1,90.38-29.55c30.69-8,62-13.77,93.63-16.25,4-.28,7.91-.64,11.87-.87l11.89-.34,5.94-.18c2-.06,4,.06,5.95.07l11.89.25c15.83.84,31.68,2.17,47.25,5.27l5.85,1.06c2,.36,3.87.89,5.8,1.33,3.85.93,7.73,1.8,11.57,2.79l11.4,3.4,2.85.85c.94.31,1.87.66,2.8,1l5.6,2a265.58,265.58,0,0,1,43.09,20.06c27.47,15.94,52.18,36.19,75.28,57.88s44.66,45.06,66.29,68.24c10.84,11.57,21.71,23.13,33,34.24s23.06,21.83,36.09,30.88a106.31,106.31,0,0,0,20.78,11.4,65.43,65.43,0,0,0,11.38,3.35,48.22,48.22,0,0,0,11.81.76,44.75,44.75,0,0,0,11.61-2.28c.92-.34,1.83-.74,2.75-1.1a23.47,23.47,0,0,0,2.71-1.2,43.62,43.62,0,0,0,5.14-3,64.29,64.29,0,0,0,16.79-16.59,111.84,111.84,0,0,0,11.48-20.77,194,194,0,0,0,8-22.39c.53-1.91,1.12-3.8,1.6-5.72l1.48-5.76c.89-3.86,1.81-7.72,2.57-11.61q2.38-11.65,4-23.43c4.47-31.41,6.11-63.15,6.61-94.86h0c-.48,31.7-2.09,63.44-6.54,94.86q-1.67,11.78-4,23.44c-.76,3.89-1.67,7.75-2.56,11.62l-1.48,5.76c-.47,1.92-1.07,3.82-1.6,5.73a193.62,193.62,0,0,1-7.94,22.41,112.09,112.09,0,0,1-11.48,20.8A64.71,64.71,0,0,1,2825,486.63a47,47,0,0,1-5.16,3,22,22,0,0,1-2.72,1.2c-.92.37-1.83.76-2.76,1.11a44.66,44.66,0,0,1-11.66,2.3,48.62,48.62,0,0,1-11.86-.75,66.77,66.77,0,0,1-11.42-3.36,106.82,106.82,0,0,1-20.84-11.41c-13.06-9.05-24.81-19.8-36.13-30.89s-22.18-22.68-33-34.26c-21.64-23.18-43.17-46.5-66.28-68.23s-47.78-41.93-75.24-57.86a266.82,266.82,0,0,0-43.05-20.05l-5.59-2c-.93-.33-1.86-.69-2.8-1l-2.85-.85-11.39-3.4c-3.83-1-7.7-1.86-11.55-2.8-1.94-.43-3.85-1-5.8-1.33l-5.85-1.06c-15.55-3.1-31.4-4.44-47.21-5.29l-11.89-.25c-2,0-4-.13-5.95-.07l-5.94.17-11.89.34c-3.95.22-7.9.58-11.86.86-31.62,2.47-62.92,8.25-93.61,16.2a820.11,820.11,0,0,0-90.38,29.54l-22.08,8.83-21.83,9.46c-7.31,3.07-14.44,6.55-21.63,9.88l-10.78,5c-1.79.84-3.6,1.65-5.38,2.53l-5.32,2.66L2072,345.45c-3.56,1.73-7,3.63-10.55,5.48L2051,356.49c-14.09,7.29-27.85,15.17-41.71,22.89-7,3.8-13.73,7.93-20.58,11.92l-20.5,12.07-20.25,12.47-10.13,6.23-5.06,3.12-5,3.22-20,12.84-10,6.43c-3.33,2.16-6.6,4.39-9.91,6.58L1868,467.47l-9.88,6.61-9.78,6.78c-52.27,35.93-103.34,73.6-153.52,112.4Z"/><text class="cls-4" transform="matrix(0.86, -0.5, 0.5, 0.86, 1977.46, 368.09)">I</text><text class="cls-4" transform="matrix(0.87, -0.49, 0.49, 0.87, 1995.72, 357.21)">n</text><text class="cls-4" transform="translate(2044.42 330.15) rotate(-26.97)">n</text><text class="cls-4" transform="translate(2093.98 304.87) rotate(-24.52)">o</text><text class="cls-4" transform="translate(2145.22 281.43) rotate(-21.57)">v</text><text class="cls-4" transform="translate(2197.28 260.76) rotate(-17.96)">a</text><text class="cls-4" transform="translate(2250.52 243.33) rotate(-13.37)">t</text><text class="cls-4" transform="translate(2306.98 229.84) rotate(-7.66)">e</text><text class="cls-4" transform="matrix(1, -0.05, 0.05, 1, 2360.76, 223.25)"> </text><text class="cls-4" transform="matrix(1, 0.02, -0.02, 1, 2379.42, 221.71)">-</text><text class="cls-4" transform="translate(2421.86 223.12) rotate(6.27)"> </text><text class="cls-4" transform="translate(2440.23 223.99) rotate(12.9)">c</text><text class="cls-4" transform="translate(2492.22 235.41) rotate(24.22)">r</text><text class="cls-4" transform="translate(2544.24 259.1) rotate(34.98)">e</text><text class="cls-4" transform="translate(2588.22 290.05) rotate(42.01)">a</text><text class="cls-4" transform="translate(2629.77 327.74) rotate(46.05)">t</text><text class="cls-4" transform="matrix(0.68, 0.73, -0.73, 0.68, 2670.43, 370.36)">e</text><text class="cls-4" transform="matrix(0.73, 0.69, -0.69, 0.73, 2708.7, 411.45)">-</text><text class="cls-4" transform="translate(2743.35 443.43) rotate(35.93)"> </text><text class="cls-4" transform="translate(2785.63 474.2) rotate(-21.03)">d</text><text class="cls-4" transform="matrix(0.27, -0.96, 0.96, 0.27, 2849.98, 424.7)">e</text><text class="cls-4" transform="matrix(0.11, -0.99, 0.99, 0.11, 2865.37, 367.07)">v</text><text class="cls-5" transform="translate(382.9 659.54)">Zen</text><polygon class="cls-6" points="422.82 772 418.63 776.29 418.55 776.37 418.44 776.35 412.6 774.98 412.7 774.55 418.53 775.96 418.34 776.02 422.39 771.59 422.82 772"/><polygon class="cls-6" points="401.79 772.46 390.98 769.93 391.12 769.33 401.91 771.94 401.79 772.46"/><polygon class="cls-6" points="380.17 767.41 369.36 764.88 369.54 764.1 380.33 766.71 380.17 767.41"/><polygon class="cls-6" points="358.55 762.36 347.74 759.83 347.96 758.88 358.75 761.49 358.55 762.36"/><polygon class="cls-6" points="336.93 757.3 326.12 754.78 326.39 753.65 337.18 756.27 336.93 757.3"/><polygon class="cls-6" points="315.31 752.25 304.5 749.73 304.81 748.43 315.6 751.04 315.31 752.25"/><polygon class="cls-6" points="293.69 747.2 287.85 745.84 287.44 745.74 287.31 745.33 285.57 739.59 287.03 739.16 288.72 744.91 288.19 744.41 294.02 745.82 293.69 747.2"/><polygon class="cls-6" points="282.36 728.97 279.14 718.34 280.76 717.86 283.89 728.51 282.36 728.97"/><polygon class="cls-6" points="275.92 707.72 272.7 697.09 274.5 696.56 277.63 707.21 275.92 707.72"/><polygon class="cls-6" points="269.49 686.47 266.28 675.84 268.22 675.26 271.36 685.91 269.49 686.47"/><polygon class="cls-6" points="263.07 665.21 259.86 654.59 261.94 653.97 265.08 664.61 263.07 665.21"/><polygon class="cls-6" points="256.65 643.96 253.45 633.33 255.65 632.67 258.79 643.32 256.65 643.96"/><polygon class="cls-6" points="250.24 622.7 248.51 616.96 248.31 616.3 248.78 615.79 252.89 611.42 254.66 613.09 250.53 617.44 250.81 616.27 252.51 622.03 250.24 622.7"/><polygon class="cls-6" points="260.49 603.33 268.09 595.24 269.96 597 262.31 605.05 260.49 603.33"/><polygon class="cls-6" points="275.69 587.15 283.29 579.05 285.26 580.91 277.61 588.96 275.69 587.15"/><polygon class="cls-6" points="290.89 570.96 298.49 562.87 300.55 564.82 292.9 572.87 290.89 570.96"/><polygon class="cls-6" points="306.1 554.78 313.69 546.69 315.85 548.73 308.2 556.77 306.1 554.78"/><polygon class="cls-6" points="321.3 538.6 328.89 530.51 331.15 532.64 323.5 540.68 321.3 538.6"/><polygon class="cls-6" points="336.5 522.42 340.6 518.04 341.23 517.38 342.14 517.59 347.99 518.92 347.22 522.14 341.4 520.7 342.93 520.24 338.8 524.59 336.5 522.42"/><polygon class="cls-6" points="358.81 521.4 369.62 523.9 368.78 527.44 358 524.8 358.81 521.4"/><polygon class="cls-6" points="380.44 526.4 391.26 528.9 390.35 532.72 379.56 530.08 380.44 526.4"/><polygon class="cls-6" points="402.06 531.43 412.87 533.98 411.93 537.91 401.14 535.32 402.06 531.43"/><polygon class="cls-6" points="423.67 536.52 434.48 539.06 433.52 543.11 422.73 540.51 423.67 536.52"/><polygon class="cls-6" points="445.29 541.6 456.09 544.15 455.11 548.29 444.31 545.7 445.29 541.6"/><polygon class="cls-6" points="466.89 546.74 472.72 548.13 473.9 548.42 474.25 549.58 475.95 555.33 471.95 556.52 470.22 550.78 471.75 552.22 465.91 550.84 466.89 546.74"/><polygon class="cls-6" points="479.11 565.97 482.27 576.61 478.33 577.79 475.14 567.15 479.11 565.97"/><polygon class="cls-6" points="485.43 587.25 488.59 597.89 484.71 599.05 481.52 588.42 485.43 587.25"/><polygon class="cls-6" points="491.75 608.53 494.89 619.18 491.12 620.31 487.9 609.68 491.75 608.53"/><polygon class="cls-6" points="498.01 629.84 501.12 640.49 497.58 641.55 494.35 630.93 498.01 629.84"/><polygon class="cls-6" points="504.24 651.15 507.36 661.8 504.05 662.79 500.81 652.17 504.24 651.15"/><polygon class="cls-6" points="510.48 672.46 512.16 678.21 512.43 679.13 511.78 679.8 507.64 684.14 505.31 681.94 509.41 677.56 509.03 679.15 507.28 673.41 510.48 672.46"/><polygon class="cls-6" points="499.97 692.17 492.27 700.17 490.18 698.19 497.73 690.05 499.97 692.17"/><polygon class="cls-6" points="484.57 708.17 476.87 716.16 475.08 714.47 482.63 706.33 484.57 708.17"/><polygon class="cls-6" points="469.17 724.16 461.47 732.15 459.98 730.75 467.53 722.61 469.17 724.16"/><polygon class="cls-6" points="453.77 740.15 446.04 748.12 444.92 747.06 452.44 738.89 453.77 740.15"/><polygon class="cls-6" points="438.31 756.08 430.57 764.05 429.89 763.4 437.4 755.23 438.31 756.08"/><ellipse class="cls-7" cx="2165.74" cy="801.06" rx="190.15" ry="185.62"/><ellipse class="cls-8" cx="308.48" cy="193.34" rx="190.15" ry="185.62"/><line class="cls-2" x1="704.86" y1="100.31" x2="704.86" y2="964.89"/><line class="cls-2" x1="1180.19" y1="100.31" x2="1180.19" y2="964.89"/><line class="cls-2" x1="427.52" y1="378.97" x2="1547.52" y2="378.97"/><line class="cls-2" x1="427.52" y1="812.31" x2="1547.52" y2="812.31"/></g></g></svg>