<svg xmlns="http://www.w3.org/2000/svg" xmlns:xlink="http://www.w3.org/1999/xlink" viewBox="0 0 2759.79 986.68"><defs><style>.cls-1{fill:url(#radial-gradient);}.cls-2,.cls-4,.cls-5{fill:#231f20;}.cls-3{fill:#603913;}.cls-4{font-size:65.08px;}.cls-4,.cls-5{font-family:ROGFonts-Regular, ROG Fonts;}.cls-5{font-size:35.67px;}.cls-6{fill:#ef4136;}.cls-7{fill:url(#radial-gradient-2);}.cls-8{fill:url(#radial-gradient-3);}</style><radialGradient id="radial-gradient" cx="1326.38" cy="496.13" r="474.51" gradientUnits="userSpaceOnUse"><stop offset="0" stop-color="#ef4136"/><stop offset="1" stop-color="#fff" stop-opacity="0"/></radialGradient><radialGradient id="radial-gradient-2" cx="2047.41" cy="801.06" r="187.9" gradientUnits="userSpaceOnUse"><stop offset="0" stop-color="#b26b29"/><stop offset="1" stop-color="#fff" stop-opacity="0"/></radialGradient><radialGradient id="radial-gradient-3" cx="190.15" cy="193.34" r="187.9" gradientUnits="userSpaceOnUse"><stop offset="0" stop-color="#f99b1c"/><stop offset="1" stop-color="#fff" stop-opacity="0"/></radialGradient></defs><g id="Layer_2" data-name="Layer 2"><g id="Layer_1-2" data-name="Layer 1"><ellipse class="cls-1" cx="1326.38" cy="496.13" rx="480.19" ry="468.76"/><path class="cls-2" d="M2018.87,283.37q-38.65,40-80.42,77c-3.49,3.06-6.91,6.21-10.46,9.21l-10.61,9c-3.55,3-7.06,6-10.66,9l-10.82,8.78c-3.62,2.91-7.19,5.89-10.85,8.74l-11,8.55c-3.68,2.83-7.29,5.76-11.06,8.49l-11.22,8.27a1015.7,1015.7,0,0,1-93.27,61.22c-8.1,4.58-16.11,9.33-24.37,13.63l-12.32,6.56-12.47,6.29-6.23,3.14-6.31,3-12.64,5.94-12.79,5.62-6.39,2.81-6.46,2.65c-4.31,1.77-8.61,3.55-12.94,5.26l-13.06,4.93c-4.34,1.69-8.75,3.19-13.14,4.73s-8.76,3.14-13.22,4.5L1592.85,565l-13.39,3.94c-4.45,1.35-9,2.51-13.45,3.72s-9,2.44-13.52,3.48c-18,4.51-36.29,8.2-54.64,11.19s-36.79,5.34-55.31,6.93a701.73,701.73,0,0,1-111.36.65l-13.88-1.19c-4.63-.42-9.24-1-13.86-1.45l-3.47-.37-3.45-.43-6.92-.86c-4.61-.54-9.21-1.23-13.81-1.88-18.39-2.65-36.69-5.88-54.92-9.35-36.48-6.88-72.76-14.66-109.36-19.52a529.63,529.63,0,0,0-55-4.56,416.66,416.66,0,0,0-55.07,2.11,432.57,432.57,0,0,0-54.29,9.35l-13.33,3.49c-2.22.61-4.46,1.13-6.66,1.8l-6.58,2-6.59,2-3.29,1-1.65.51-1.62.58-13,4.64a492,492,0,0,0-50.5,22.09L837.74,608c-2,1-4,2.2-6.06,3.29L819.59,618c-7.87,4.76-15.86,9.32-23.53,14.41l-5.8,3.74L787.35,638c-1,.64-1.89,1.31-2.84,2l-11.35,7.86c-1.91,1.29-3.74,2.69-5.59,4.06L762,656l-5.54,4.12c-1.85,1.38-3.62,2.85-5.44,4.27l-10.81,8.59-10.57,8.92c-3.55,2.94-7,6-10.41,9.1l-5.16,4.6-2.59,2.29L709,700.22l-10.07,9.48c-1.7,1.57-3.31,3.21-4.95,4.83l-4.91,4.88-4.92,4.87c-1.63,1.64-3.2,3.33-4.8,5l-9.57,10q-18.82,20.33-36.53,41.67c-3,3.55-5.8,7.19-8.71,10.78l-4.34,5.41-4.25,5.48c-2.82,3.66-5.68,7.29-8.47,11l-8.29,11.13c-2.79,3.68-5.42,7.49-8.14,11.23s-5.4,7.51-8,11.33l-7.92,11.4-7.74,11.53c-10.2,15.44-20.25,31-29.85,46.86s-18.93,31.87-28.06,48l-.71-.38C542.82,898.82,582,835.24,628.35,777q17.43-21.79,36.18-42.54l9.54-10.2c1.6-1.69,3.17-3.42,4.79-5.08l4.91-5,4.9-5c1.64-1.66,3.26-3.34,5-4.94l10.08-9.7,2.52-2.41,2.59-2.36,5.17-4.71c3.44-3.14,6.87-6.31,10.45-9.29l10.64-9.1L746,657.91c1.83-1.45,3.61-2.95,5.48-4.36l5.59-4.21,5.59-4.21c1.87-1.4,3.72-2.83,5.65-4.15l11.47-8.05c1-.66,1.9-1.35,2.87-2l2.94-1.91,5.87-3.83,5.87-3.82c1.94-1.31,4-2.43,6-3.65l12-7.19,12.29-6.75c2.06-1.11,4.09-2.27,6.17-3.34l6.28-3.13,6.27-3.12c2.1-1,4.16-2.14,6.32-3.06l12.79-5.75,3.2-1.44c1.08-.46,2.17-.88,3.25-1.31l6.52-2.6c4.36-1.69,8.66-3.55,13.11-5l13.24-4.63,1.66-.58,1.68-.51,3.35-1,6.72-2,6.72-2c2.24-.66,4.52-1.18,6.78-1.77l13.6-3.46a441.08,441.08,0,0,1,55.35-9.12,414.71,414.71,0,0,1,56.05-1.7,506.19,506.19,0,0,1,55.72,5.28c18.44,2.7,36.72,6.21,54.9,10l54.42,11.59c36.26,7.53,72.76,14.07,109.68,17.11,18.44,1.54,37,2.19,55.47,2.16,4.62-.06,9.25,0,13.88-.17l13.87-.57q13.86-.66,27.69-2a649.29,649.29,0,0,0,109.07-19.84,772.59,772.59,0,0,0,104.54-36.64l6.37-2.71,6.31-2.85,12.62-5.72,12.48-6,6.26-3,6.17-3.13,12.36-6.27L1730.7,499c8.18-4.29,16.18-8.92,24.24-13.43,4-2.23,8-4.66,12-7l11.91-7.09,11.75-7.36c3.9-2.48,7.87-4.85,11.7-7.43,15.5-10.08,30.85-20.4,45.85-31.22l11.26-8.11c1.89-1.34,3.74-2.72,5.58-4.12l5.55-4.16,11.1-8.33c3.7-2.77,7.3-5.68,11-8.52l10.92-8.56c3.64-2.86,7.18-5.85,10.78-8.75L1925,366.1c3.61-2.91,7.09-6,10.63-8.94,28.31-23.89,55.78-48.79,82.65-74.35Z"/><polygon class="cls-3" points="149.91 0.02 149.31 5.99 149.05 5.96 149.71 0 149.91 0.02"/><polygon class="cls-3" points="148.12 17.98 146.94 29.97 146.44 29.92 147.74 17.94 148.12 17.98"/><polygon class="cls-3" points="145.76 41.96 144.6 53.95 143.85 53.87 145.14 41.89 145.76 41.96"/><polygon class="cls-3" points="143.45 65.94 142.29 77.93 141.32 77.83 142.58 65.85 143.45 65.94"/><polygon class="cls-3" points="141.13 89.92 139.98 101.92 138.87 101.81 140.09 89.82 141.13 89.92"/><polygon class="cls-3" points="138.84 113.91 137.72 125.9 136.46 125.78 137.66 113.79 138.84 113.91"/><polygon class="cls-3" points="136.6 137.9 135.49 149.89 134.09 149.76 135.27 137.77 136.6 137.9"/><polygon class="cls-3" points="134.4 161.89 133.3 173.88 131.78 173.74 132.92 161.75 134.4 161.89"/><polygon class="cls-3" points="132.2 185.88 131.12 197.88 129.55 197.74 130.66 185.74 132.2 185.88"/><polygon class="cls-3" points="130.05 209.88 129 221.88 127.37 221.73 128.45 209.73 130.05 209.88"/><polygon class="cls-3" points="127.96 233.88 126.93 245.88 125.24 245.74 126.3 233.73 127.96 233.88"/><polygon class="cls-3" points="125.91 257.88 124.91 269.89 123.16 269.74 124.19 257.74 125.91 257.88"/><rect class="cls-3" x="116.52" y="286.93" width="12.05" height="1.79" transform="translate(-174.33 386.45) rotate(-85.32)"/><polygon class="cls-3" points="121.96 305.91 121 317.92 119.26 317.78 120.2 305.77 121.96 305.91"/><polygon class="cls-3" points="120.05 329.92 119.11 341.93 117.43 341.81 118.33 329.79 120.05 329.92"/><polygon class="cls-3" points="118.2 353.94 117.3 365.96 115.67 365.84 116.54 353.82 118.2 353.94"/><polygon class="cls-3" points="116.4 377.97 115.52 389.98 114.03 389.88 114.84 377.86 116.4 377.97"/><polygon class="cls-3" points="114.66 402 113.81 414.02 112.47 413.93 113.24 401.9 114.66 402"/><polygon class="cls-3" points="112.99 426.04 112.19 438.06 111.01 437.98 111.73 425.95 112.99 426.04"/><polygon class="cls-3" points="111.42 450.08 110.67 462.1 109.63 462.04 110.31 450.01 111.42 450.08"/><polygon class="cls-3" points="109.94 474.13 109.24 486.15 108.36 486.1 108.98 474.07 109.94 474.13"/><polygon class="cls-3" points="108.57 498.18 107.95 510.21 107.18 510.17 107.77 498.14 108.57 498.18"/><polygon class="cls-3" points="107.36 522.24 106.8 534.28 106.1 534.25 106.62 522.21 107.36 522.24"/><polygon class="cls-3" points="106.28 546.31 105.79 558.35 105.14 558.33 105.6 546.29 106.28 546.31"/><polygon class="cls-3" points="105.34 570.39 104.94 582.43 104.32 582.41 104.72 570.37 105.34 570.39"/><polygon class="cls-3" points="104.6 594.47 104.31 606.52 103.61 606.5 103.94 594.45 104.6 594.47"/><polygon class="cls-3" points="104.06 618.56 103.86 630.61 103.07 630.59 103.31 618.55 104.06 618.56"/><polygon class="cls-3" points="103.71 642.65 103.62 654.7 102.75 654.69 102.89 642.64 103.71 642.65"/><polygon class="cls-3" points="103.59 666.75 103.62 678.79 102.67 678.8 102.68 666.75 103.59 666.75"/><polygon class="cls-3" points="103.72 690.84 103.9 702.88 102.87 702.9 102.73 690.85 103.72 690.84"/><polygon class="cls-3" points="104.16 714.93 104.51 726.97 103.39 727 103.08 714.95 104.16 714.93"/><polygon class="cls-3" points="104.97 739.01 105.53 751.04 104.29 751.1 103.78 739.05 104.97 739.01"/><polygon class="cls-3" points="106.22 763.06 107.04 775.07 105.68 775.17 104.92 763.14 106.22 763.06"/><polygon class="cls-3" points="108.02 787.07 109.18 799.05 107.71 799.2 106.61 787.19 108.02 787.07"/><polygon class="cls-3" points="110.54 811 112.15 822.92 110.57 823.15 109.02 811.19 110.54 811"/><polygon class="cls-3" points="114.06 834.8 116.32 846.6 114.65 846.95 112.43 835.08 114.06 834.8"/><polygon class="cls-3" points="119.05 858.3 122.39 869.82 120.66 870.37 117.34 858.73 119.05 858.3"/><path class="cls-3" d="M126.55,881a80.72,80.72,0,0,0,5.42,10.6l-1.59,1a82.07,82.07,0,0,1-5.52-10.86Z"/><path class="cls-3" d="M139.31,900.82a23.41,23.41,0,0,0,10,5.67l-.48,1.86A25.27,25.27,0,0,1,138,902.21Z"/><path class="cls-3" d="M160.67,906.16a41.47,41.47,0,0,0,10.62-5l1.05,1.67A43,43,0,0,1,161.2,908Z"/><path class="cls-3" d="M180.81,894.06c3-2.59,5.94-5.32,8.78-8.13l1.43,1.45c-2.87,2.83-5.83,5.59-8.91,8.2Z"/><polygon class="cls-3" points="197.91 877.29 205.95 868.35 207.51 869.73 199.42 878.68 197.91 877.29"/><polygon class="cls-3" points="213.81 859.25 221.6 850.07 223.22 851.43 215.42 860.62 213.81 859.25"/><polygon class="cls-3" points="229.36 840.86 237.14 831.66 238.74 833.01 230.97 842.22 229.36 840.86"/><polygon class="cls-3" points="244.97 822.49 252.88 813.39 254.44 814.76 246.55 823.85 244.97 822.49"/><polygon class="cls-3" points="260.89 804.38 269.03 795.48 270.54 796.88 262.43 805.77 260.89 804.38"/><polygon class="cls-3" points="277.31 786.72 285.76 778.1 287.2 779.54 278.79 788.13 277.31 786.72"/><polygon class="cls-3" points="294.38 769.66 303.19 761.41 304.56 762.9 295.79 771.12 294.38 769.66"/><polygon class="cls-3" points="312.21 753.38 321.44 745.61 322.69 747.13 313.52 754.9 312.21 753.38"/><polygon class="cls-3" points="330.9 738.11 340.59 730.9 341.67 732.4 332.07 739.62 330.9 738.11"/><polygon class="cls-3" points="350.51 724.01 360.66 717.47 361.57 718.93 351.5 725.49 350.51 724.01"/><polygon class="cls-3" points="371.04 711.29 381.64 705.52 382.38 706.94 371.86 712.74 371.04 711.29"/><polygon class="cls-3" points="392.47 700.17 403.51 695.27 404.09 696.63 393.13 701.56 392.47 700.17"/><polygon class="cls-3" points="414.75 690.84 426.16 686.9 426.58 688.19 415.24 692.17 414.75 690.84"/><polygon class="cls-3" points="437.74 683.47 449.45 680.55 449.73 681.76 438.08 684.72 437.74 683.47"/><polygon class="cls-3" points="461.29 678.17 473.22 676.31 473.37 677.41 461.5 679.32 461.29 678.17"/><polygon class="cls-3" points="485.22 674.99 497.26 674.18 497.31 675.17 485.31 676.03 485.22 674.99"/><polygon class="cls-3" points="509.32 673.91 521.39 674.16 521.36 674.99 509.33 674.83 509.32 673.91"/><polygon class="cls-3" points="533.43 674.93 545.42 676.2 545.35 676.79 533.37 675.64 533.43 674.93"/><polygon class="cls-3" points="557.35 677.94 569.2 680.16 569.13 680.52 557.27 678.42 557.35 677.94"/><polygon class="cls-3" points="580.96 682.82 586.77 684.3 586.72 684.49 580.9 683.07 580.96 682.82"/><path class="cls-2" d="M1576.49,593.24c50.15-38.83,101.19-76.54,153.45-112.51l9.77-6.78,9.88-6.62,19.77-13.22c3.31-2.2,6.58-4.43,9.9-6.59l10-6.43,20-12.86,5-3.22,5.06-3.13,10.13-6.23,20.27-12.46,20.5-12.06c6.86-4,13.63-8.12,20.59-11.91,13.86-7.72,27.63-15.6,41.72-22.87l10.51-5.56c3.51-1.85,7-3.74,10.56-5.47l21.3-10.61,5.32-2.65c1.78-.88,3.59-1.69,5.38-2.53l10.78-5c7.2-3.32,14.33-6.8,21.65-9.86l21.82-9.46,22.1-8.82a831.59,831.59,0,0,1,90.38-29.55c30.69-8,62-13.77,93.63-16.25,4-.28,7.91-.64,11.87-.87l11.89-.34,5.94-.18c2-.06,4,.06,6,.07l11.89.25c15.83.84,31.68,2.17,47.25,5.27l5.85,1.06c2,.36,3.87.89,5.8,1.33,3.85.93,7.73,1.8,11.57,2.79l11.4,3.4,2.85.85c.94.31,1.87.66,2.8,1l5.6,2a265.09,265.09,0,0,1,43.08,20.06c27.48,15.94,52.19,36.19,75.29,57.88s44.66,45.06,66.29,68.24c10.84,11.57,21.71,23.13,33,34.24s23.06,21.83,36.09,30.88a106.31,106.31,0,0,0,20.78,11.4,65.43,65.43,0,0,0,11.38,3.35,48.19,48.19,0,0,0,11.81.76,44.75,44.75,0,0,0,11.61-2.28c.92-.34,1.83-.74,2.75-1.1a23.47,23.47,0,0,0,2.71-1.2,43.62,43.62,0,0,0,5.14-3,64.29,64.29,0,0,0,16.79-16.59,111.84,111.84,0,0,0,11.48-20.77,194,194,0,0,0,8-22.39c.53-1.91,1.12-3.8,1.6-5.72l1.48-5.76c.89-3.86,1.81-7.72,2.57-11.61q2.39-11.65,4-23.43c4.47-31.41,6.11-63.15,6.61-94.86h0c-.48,31.7-2.09,63.44-6.54,94.86q-1.67,11.78-4,23.44c-.76,3.89-1.67,7.75-2.56,11.62l-1.48,5.76c-.47,1.92-1.07,3.82-1.6,5.73a193.62,193.62,0,0,1-7.94,22.41,112.09,112.09,0,0,1-11.48,20.8,64.71,64.71,0,0,1-16.83,16.66,47,47,0,0,1-5.16,3,22,22,0,0,1-2.72,1.2c-.92.37-1.83.76-2.76,1.11a44.66,44.66,0,0,1-11.66,2.3,48.62,48.62,0,0,1-11.86-.75,66.77,66.77,0,0,1-11.42-3.36,106.82,106.82,0,0,1-20.84-11.41c-13.06-9.05-24.81-19.8-36.13-30.89s-22.18-22.68-33-34.26c-21.64-23.18-43.17-46.5-66.28-68.23s-47.78-41.93-75.24-57.86a266.82,266.82,0,0,0-43.05-20.05l-5.59-2c-.93-.33-1.86-.69-2.8-1l-2.85-.85-11.39-3.4c-3.83-1-7.7-1.86-11.55-2.8-1.94-.43-3.85-1-5.8-1.33l-5.85-1.06c-15.55-3.1-31.4-4.44-47.21-5.29l-11.89-.25c-2,0-4-.13-6-.07l-5.94.17-11.89.34c-3.95.22-7.9.58-11.86.86-31.62,2.47-62.92,8.25-93.61,16.2A820.11,820.11,0,0,0,2062,296.45l-22.08,8.83-21.83,9.46c-7.31,3.07-14.44,6.55-21.63,9.88l-10.78,5c-1.79.84-3.6,1.65-5.38,2.53l-5.32,2.66-21.29,10.61c-3.56,1.73-7,3.63-10.55,5.48l-10.51,5.56c-14.09,7.29-27.85,15.17-41.71,22.89-7,3.8-13.73,7.93-20.58,11.92l-20.5,12.07-20.25,12.47-10.13,6.23-5.06,3.12-5,3.22-20,12.84-10,6.43c-3.33,2.16-6.6,4.39-9.91,6.58l-19.78,13.21-9.88,6.61-9.78,6.78c-52.27,35.93-103.34,73.6-153.52,112.4Z"/><text class="cls-4" transform="matrix(0.86, -0.5, 0.5, 0.86, 1859.13, 368.09)">I</text><text class="cls-4" transform="matrix(0.87, -0.49, 0.49, 0.87, 1877.39, 357.21)">n</text><text class="cls-4" transform="translate(1926.09 330.15) rotate(-26.97)">n</text><text class="cls-4" transform="translate(1975.65 304.87) rotate(-24.52)">o</text><text class="cls-4" transform="translate(2026.89 281.43) rotate(-21.57)">v</text><text class="cls-4" transform="translate(2078.95 260.76) rotate(-17.96)">a</text><text class="cls-4" transform="translate(2132.19 243.33) rotate(-13.37)">t</text><text class="cls-4" transform="translate(2188.65 229.84) rotate(-7.66)">e</text><text class="cls-4" transform="matrix(1, -0.05, 0.05, 1, 2242.43, 223.25)"> </text><text class="cls-4" transform="matrix(1, 0.02, -0.02, 1, 2261.09, 221.71)">-</text><text class="cls-4" transform="translate(2303.53 223.12) rotate(6.27)"> </text><text class="cls-4" transform="translate(2321.9 223.99) rotate(12.9)">c</text><text class="cls-4" transform="translate(2373.89 235.41) rotate(24.22)">r</text><text class="cls-4" transform="translate(2425.91 259.1) rotate(34.98)">e</text><text class="cls-4" transform="translate(2469.89 290.05) rotate(42.01)">a</text><text class="cls-4" transform="translate(2511.44 327.74) rotate(46.05)">t</text><text class="cls-4" transform="matrix(0.68, 0.73, -0.73, 0.68, 2552.1, 370.36)">e</text><text class="cls-4" transform="matrix(0.73, 0.69, -0.69, 0.73, 2590.37, 411.45)">-</text><text class="cls-4" transform="translate(2625.02 443.43) rotate(35.93)"> </text><text class="cls-4" transform="translate(2667.3 474.2) rotate(-21.03)">d</text><text class="cls-4" transform="matrix(0.27, -0.96, 0.96, 0.27, 2731.65, 424.7)">e</text><text class="cls-4" transform="matrix(0.11, -0.99, 0.99, 0.11, 2747.04, 367.07)">v</text><text class="cls-5" transform="translate(484.57 659.54)">Zen</text><polygon class="cls-6" points="525.5 772 521.3 776.29 521.22 776.37 521.11 776.35 515.27 774.98 515.37 774.55 521.2 775.96 521.01 776.02 525.06 771.59 525.5 772"/><polygon class="cls-6" points="504.46 772.46 493.65 769.93 493.79 769.33 504.58 771.94 504.46 772.46"/><polygon class="cls-6" points="482.84 767.41 472.03 764.88 472.21 764.1 483 766.71 482.84 767.41"/><polygon class="cls-6" points="461.22 762.36 450.41 759.83 450.63 758.88 461.42 761.49 461.22 762.36"/><polygon class="cls-6" points="439.6 757.3 428.79 754.78 429.06 753.65 439.85 756.27 439.6 757.3"/><polygon class="cls-6" points="417.98 752.25 407.17 749.73 407.48 748.43 418.27 751.04 417.98 752.25"/><polygon class="cls-6" points="396.36 747.2 390.52 745.84 390.11 745.74 389.98 745.33 388.25 739.59 389.7 739.16 391.39 744.91 390.86 744.41 396.69 745.82 396.36 747.2"/><polygon class="cls-6" points="385.03 728.97 381.81 718.34 383.43 717.86 386.56 728.51 385.03 728.97"/><polygon class="cls-6" points="378.59 707.72 375.38 697.09 377.17 696.56 380.3 707.21 378.59 707.72"/><polygon class="cls-6" points="372.16 686.47 368.95 675.84 370.89 675.26 374.03 685.91 372.16 686.47"/><polygon class="cls-6" points="365.74 665.21 362.53 654.59 364.61 653.97 367.75 664.61 365.74 665.21"/><polygon class="cls-6" points="359.32 643.96 356.12 633.33 358.32 632.67 361.46 643.32 359.32 643.96"/><polygon class="cls-6" points="352.91 622.7 351.18 616.96 350.98 616.3 351.45 615.79 355.56 611.42 357.33 613.09 353.2 617.44 353.48 616.27 355.18 622.03 352.91 622.7"/><polygon class="cls-6" points="363.16 603.33 370.76 595.24 372.63 597 364.98 605.05 363.16 603.33"/><polygon class="cls-6" points="378.36 587.15 385.96 579.05 387.93 580.91 380.28 588.96 378.36 587.15"/><polygon class="cls-6" points="393.56 570.96 401.16 562.87 403.22 564.82 395.57 572.87 393.56 570.96"/><polygon class="cls-6" points="408.76 554.78 416.37 546.69 418.52 548.73 410.87 556.77 408.76 554.78"/><polygon class="cls-6" points="423.96 538.6 431.56 530.51 433.82 532.64 426.17 540.68 423.96 538.6"/><polygon class="cls-6" points="439.17 522.42 443.27 518.04 443.9 517.38 444.81 517.59 450.66 518.92 449.89 522.14 444.07 520.7 445.6 520.24 441.46 524.59 439.17 522.42"/><polygon class="cls-6" points="461.48 521.4 472.29 523.9 471.45 527.44 460.67 524.8 461.48 521.4"/><polygon class="cls-6" points="483.11 526.4 493.93 528.9 493.02 532.72 482.23 530.08 483.11 526.4"/><polygon class="cls-6" points="504.73 531.43 515.54 533.98 514.6 537.91 503.81 535.32 504.73 531.43"/><polygon class="cls-6" points="526.34 536.52 537.15 539.06 536.19 543.11 525.39 540.51 526.34 536.52"/><polygon class="cls-6" points="547.96 541.6 558.76 544.15 557.78 548.29 546.98 545.7 547.96 541.6"/><polygon class="cls-6" points="569.56 546.74 575.39 548.13 576.57 548.42 576.92 549.58 578.63 555.33 574.62 556.52 572.89 550.78 574.42 552.22 568.58 550.84 569.56 546.74"/><polygon class="cls-6" points="581.78 565.97 584.94 576.61 581 577.79 577.81 567.15 581.78 565.97"/><polygon class="cls-6" points="588.1 587.25 591.26 597.89 587.38 599.05 584.19 588.42 588.1 587.25"/><polygon class="cls-6" points="594.42 608.53 597.56 619.18 593.78 620.31 590.57 609.68 594.42 608.53"/><polygon class="cls-6" points="600.68 629.84 603.79 640.49 600.25 641.55 597.02 630.93 600.68 629.84"/><polygon class="cls-6" points="606.91 651.15 610.03 661.8 606.72 662.79 603.49 652.17 606.91 651.15"/><polygon class="cls-6" points="613.14 672.46 614.83 678.21 615.1 679.13 614.45 679.8 610.31 684.14 607.98 681.94 612.08 677.56 611.7 679.15 609.95 673.41 613.14 672.46"/><polygon class="cls-6" points="602.64 692.17 594.95 700.17 592.85 698.19 600.4 690.05 602.64 692.17"/><polygon class="cls-6" points="587.24 708.17 579.54 716.16 577.75 714.47 585.3 706.33 587.24 708.17"/><polygon class="cls-6" points="571.84 724.16 564.14 732.15 562.65 730.75 570.2 722.61 571.84 724.16"/><polygon class="cls-6" points="556.44 740.15 548.71 748.12 547.59 747.06 555.11 738.89 556.44 740.15"/><polygon class="cls-6" points="540.98 756.08 533.24 764.05 532.56 763.4 540.08 755.23 540.98 756.08"/><ellipse class="cls-7" cx="2047.41" cy="801.06" rx="190.15" ry="185.62"/><ellipse class="cls-8" cx="190.15" cy="193.34" rx="190.15" ry="185.62"/></g></g></svg>